<?xml version="1.0" standalone="no"?>
<!DOCTYPE svg PUBLIC "-//W3C//DTD SVG 20010904//EN"
 "http://www.w3.org/TR/2001/REC-SVG-20010904/DTD/svg10.dtd">
<svg version="1.0" xmlns="http://www.w3.org/2000/svg"
 width="1400.000000pt" height="1400.000000pt" viewBox="0 0 1400.000000 1400.000000"
 preserveAspectRatio="xMidYMid meet">
<metadata>
Created by potrace 1.11, written by Peter Selinger 2001-2013
</metadata>
<g transform="translate(0.000000,1400.000000) scale(0.100000,-0.100000)"
fill="#000000" stroke="none">
<path d="M6715 13990 c-1399 -57 -2765 -541 -3885 -1375 -1594 -1188 -2606
-2983 -2795 -4958 -86 -905 14 -1861 286 -2737 228 -734 603 -1471 1064 -2090
886 -1190 2132 -2074 3535 -2509 954 -297 1961 -385 2960 -260 783 98 1538
329 2260 690 1342 673 2436 1767 3109 3109 248 495 408 930 541 1465 306 1236
268 2535 -111 3755 -228 734 -603 1471 -1064 2090 -1189 1596 -2983 2606
-4963 2795 -164 16 -579 36 -692 33 -36 -1 -146 -4 -245 -8z m860 -514 c920
-84 1790 -352 2584 -795 363 -203 688 -428 1036 -717 171 -142 590 -560 750
-749 864 -1018 1387 -2247 1519 -3570 158 -1580 -248 -3114 -1167 -4410 -378
-533 -889 -1053 -1421 -1450 -535 -398 -1148 -723 -1759 -931 -511 -174 -977
-273 -1557 -331 -250 -25 -884 -25 -1130 0 -890 91 -1603 293 -2344 664 -1246
624 -2275 1654 -2901 2904 -398 793 -623 1645 -676 2554 -15 253 -6 798 15
995 90 819 290 1518 637 2225 317 646 723 1210 1248 1736 1022 1021 2334 1665
3771 1848 85 11 225 25 310 31 85 6 171 12 190 14 86 10 738 -3 895 -18z"/>
<path d="M6672 12830 c-1170 -70 -2263 -471 -3190 -1170 -1229 -926 -2050
-2311 -2266 -3825 -65 -457 -73 -982 -20 -1470 185 -1723 1133 -3277 2589
-4240 805 -532 1709 -848 2697 -942 238 -22 788 -22 1026 0 751 72 1448 268
2087 589 527 265 952 559 1389 963 753 697 1333 1637 1622 2632 239 826 292
1665 158 2533 -139 902 -488 1757 -1027 2510 -308 430 -736 875 -1157 1201
-902 699 -1957 1110 -3105 1209 -169 14 -633 20 -803 10z m713 -340 c954 -67
1876 -384 2680 -922 1180 -790 2022 -2035 2314 -3423 125 -592 154 -1255 80
-1840 -145 -1143 -671 -2254 -1456 -3075 -476 -498 -932 -838 -1528 -1140
-661 -334 -1358 -528 -2085 -580 -186 -13 -604 -13 -790 0 -730 52 -1469 260
-2118 596 -917 474 -1674 1184 -2200 2061 -449 746 -705 1558 -772 2442 -13
173 -13 691 0 846 38 441 123 852 265 1280 427 1285 1310 2362 2491 3041 707
406 1522 656 2324 713 166 12 632 12 795 1z"/>
<path d="M6752 11829 c-526 -25 -1068 -144 -1562 -341 -158 -63 -447 -205
-610 -298 -871 -500 -1598 -1306 -2003 -2221 -355 -801 -483 -1649 -382 -2525
132 -1140 663 -2196 1495 -2972 540 -503 1163 -869 1850 -1086 835 -263 1753
-292 2615 -81 642 156 1236 441 1778 852 617 469 1136 1115 1458 1815 397 863
529 1800 388 2748 -156 1047 -644 1997 -1410 2745 -675 660 -1508 1097 -2449
1285 -176 35 -473 69 -705 79 -121 6 -236 10 -255 9 -19 0 -113 -5 -208 -9z
m753 -353 c539 -67 982 -196 1455 -423 446 -214 843 -497 1206 -858 369 -367
644 -749 870 -1209 239 -484 381 -980 440 -1536 25 -233 26 -738 1 -942 -87
-722 -321 -1376 -701 -1958 -699 -1070 -1801 -1790 -3051 -1994 -271 -44 -372
-51 -735 -51 -360 0 -436 5 -720 51 -1241 199 -2348 921 -3044 1986 -382 586
-616 1236 -703 1958 -26 213 -26 848 0 1040 121 893 447 1650 1002 2325 746
907 1866 1507 3015 1614 63 6 131 13 150 15 86 10 702 -4 815 -18z"/>
<path d="M6785 10830 c-926 -48 -1792 -430 -2469 -1090 -634 -618 -1016 -1393
-1133 -2295 -24 -189 -24 -634 1 -850 105 -914 483 -1697 1128 -2331 430 -424
917 -722 1483 -907 218 -72 335 -101 548 -137 261 -44 379 -54 652 -54 265 0
385 10 634 51 1058 172 2005 794 2593 1704 212 327 358 646 464 1018 161 562
190 1117 89 1718 -173 1024 -776 1953 -1645 2533 -697 465 -1497 683 -2345
640z m525 -340 c1169 -103 2223 -802 2777 -1840 206 -387 331 -788 389 -1245
23 -176 26 -659 6 -805 -74 -541 -222 -971 -480 -1400 -530 -882 -1414 -1484
-2427 -1654 -207 -35 -346 -46 -580 -46 -234 0 -373 11 -580 46 -607 102
-1153 351 -1650 753 -113 92 -331 308 -434 431 -474 566 -740 1191 -817 1923
-23 216 -15 680 14 858 74 450 189 790 393 1165 160 293 351 547 599 795 240
241 478 421 783 593 399 225 915 385 1373 425 132 12 502 12 634 1z"/>
<path d="M6860 9834 c-287 -25 -432 -49 -635 -105 -362 -101 -698 -276 -1015
-527 -116 -93 -322 -297 -414 -412 -91 -114 -243 -343 -305 -460 -157 -298
-266 -649 -312 -1010 -17 -128 -16 -462 0 -620 54 -507 244 -994 546 -1395
209 -278 429 -486 715 -674 470 -310 985 -464 1555 -464 467 0 859 92 1275
299 447 224 814 548 1095 969 568 850 624 1970 144 2885 -133 253 -304 483
-515 692 -419 415 -920 676 -1504 782 -169 30 -499 51 -630 40z m541 -363
c693 -115 1304 -512 1691 -1099 419 -635 523 -1429 283 -2157 -195 -595 -618
-1103 -1170 -1407 -820 -451 -1837 -404 -2610 122 -262 179 -505 424 -682 690
-461 691 -542 1581 -217 2359 210 501 618 951 1101 1214 270 148 550 242 833
281 63 9 126 18 140 20 14 2 133 3 265 1 185 -2 269 -8 366 -24z"/>
</g>
</svg>
